# xmcd
#
# Track frame offsets: 
#        150
#        17945
#        31651
#        47488
#        66517
#        81623
#        97122
#        114263
#        129444
#        141795
#        161127
#        184225
#        200304
#        221162
#        240947
#        261301
#        279782
#        298419
#        318676
#
# Disc length: 4466 seconds
#
# Revision: 30
# Processed by: cddbd v1.5.2PL0 Copyright (c) Steve Scherf et al.
# Submitted via: ExactAudioCopy v1.2
#
DISCID=24117013
DTITLE=John Lennon - Working Class Hero: The Definitive Lennon [Disc 1
DTITLE=of 2]
DYEAR=2005
DGENRE=Rock
TTITLE0=(Just Like) Starting Over
TTITLE1=John Lennon and The Plastic Ono Band with Flux Fiddlers - Imag
TTITLE1=ine
TTITLE2=Watching the Wheels
TTITLE3=John Lennon and The Plastic Ono Band with Flux Fiddlers - Jeal
TTITLE3=ous Guy
TTITLE4=John Lennon and The Plastic Ono Band - Instant Karma! (We All 
TTITLE4=Shine On)
TTITLE5=Stand by Me
TTITLE6=Working Class Hero
TTITLE7=John Lennon and The Plastic Ono Band - Power to the People
TTITLE8=John Lennon and The Plastic Ono Band with Flux Fiddlers - Oh M
TTITLE8=y Love
TTITLE9=John Lennon and The Plastic Ono Band with Flux Fiddlers - Oh Y
TTITLE9=oko!
TTITLE10=John Lennon and The Plastic Ono Band - Nobody Loves You (When
TTITLE10=You're Down and Out)
TTITLE11=Nobody Told Me
TTITLE12=John Lennon and The Plastic Ono Band - Bless You
TTITLE13=Come Together [Live]
TTITLE14=John Lennon and The Plastic Ono Band with Flux Fiddlers, Elep
TTITLE14=hant's Memory and Invisible Strings - New York City
TTITLE15=I'm Stepping Out
TTITLE16=John Lennon and The Plastic U.F.Ono Band - You Are Here
TTITLE17=Borrowed Time
TTITLE18=John Lennon and The Plastic Ono Band with The Harlem Communit
TTITLE18=y Choir - Happy Xmas (War Is Over)
EXTD=Location:  - UPC: 094634008020 - Catalogue number: 0946 3 40080 2 0
EXTD=Label: Parlophone - ASIN: B000ASTEC2 - Release Date: 2005 10 03 - 
EXTD=Discogs: a46481,m300864,r723649 - MUSICBRAINZ_ALBUMID: c105826b-e9
EXTD=84-4ecd-be04-e241012b3a0f - AMG: mn0000232564,mw0000170967;
EXTT0=
EXTT1=
EXTT2=
EXTT3=
EXTT4=
EXTT5=
EXTT6=
EXTT7=
EXTT8=
EXTT9=
EXTT10=
EXTT11=
EXTT12=
EXTT13=
EXTT14=
EXTT15=
EXTT16=
EXTT17=
EXTT18=
PLAYORDER=
